<?xml version="1.0" encoding="UTF-8" standalone="no"?><!DOCTYPE svg PUBLIC "-//W3C//DTD SVG 1.1//EN" "http://www.w3.org/Graphics/SVG/1.1/DTD/svg11.dtd"><svg width="100%" height="100%" viewBox="0 0 544 544" version="1.1" xmlns="http://www.w3.org/2000/svg" xmlns:xlink="http://www.w3.org/1999/xlink" xml:space="preserve" xmlns:serif="http://www.serif.com/" style="fill-rule:evenodd;clip-rule:evenodd;stroke-linecap:round;stroke-linejoin:round;stroke-miterlimit:1.5;"><rect id="Artboard1" x="0" y="0" width="544" height="544" style="fill:none;"/><circle cx="272" cy="272" r="240" style="fill:none;stroke:url(#_Linear1);stroke-width:32px;"/><circle cx="272" cy="182" r="15" style="fill:#c99cff;"/><circle cx="212" cy="182" r="15" style="fill:#c99cff;"/><circle cx="332" cy="182" r="15" style="fill:#c99cff;"/><path d="M392,234.5c-0,-4.139 -3.361,-7.5 -7.5,-7.5l-225,0c-4.139,0 -7.5,3.361 -7.5,7.5l-0,15c-0,4.139 3.361,7.5 7.5,7.5l225,0c4.139,0 7.5,-3.361 7.5,-7.5l-0,-15Z" style="fill:#c99cff;"/><path d="M392,294.5c-0,-4.139 -3.361,-7.5 -7.5,-7.5l-225,0c-4.139,0 -7.5,3.361 -7.5,7.5l-0,15c-0,4.139 3.361,7.5 7.5,7.5l225,0c4.139,0 7.5,-3.361 7.5,-7.5l-0,-15Z" style="fill:#c99cff;"/><path d="M392,354.5c-0,-4.139 -3.361,-7.5 -7.5,-7.5l-225,0c-4.139,0 -7.5,3.361 -7.5,7.5l-0,15c-0,4.139 3.361,7.5 7.5,7.5l225,0c4.139,0 7.5,-3.361 7.5,-7.5l-0,-15Z" style="fill:#c99cff;"/><defs><linearGradient id="_Linear1" x1="0" y1="0" x2="1" y2="0" gradientUnits="userSpaceOnUse" gradientTransform="matrix(480,0,0,480,32,272)"><stop offset="0" style="stop-color:#ff3a5c;stop-opacity:1"/><stop offset="1" style="stop-color:#ff68cd;stop-opacity:1"/></linearGradient></defs></svg>