<?xml version="1.0" encoding="UTF-8" standalone="no"?><!DOCTYPE svg PUBLIC "-//W3C//DTD SVG 1.1//EN" "http://www.w3.org/Graphics/SVG/1.1/DTD/svg11.dtd"><svg width="100%" height="100%" viewBox="0 0 540 540" version="1.1" xmlns="http://www.w3.org/2000/svg" xmlns:xlink="http://www.w3.org/1999/xlink" xml:space="preserve" xmlns:serif="http://www.serif.com/" style="fill-rule:evenodd;clip-rule:evenodd;stroke-linejoin:round;stroke-miterlimit:2;"><path d="M515,147.5c0,-67.61 -54.89,-122.5 -122.5,-122.5l-245,-0c-67.61,-0 -122.5,54.89 -122.5,122.5l-0,245c-0,67.61 54.89,122.5 122.5,122.5l245,0c67.61,0 122.5,-54.89 122.5,-122.5l0,-245Z" style="fill:#e6e6e6;"/><clipPath id="_clip1"><path d="M515,147.5c0,-67.61 -54.89,-122.5 -122.5,-122.5l-245,-0c-67.61,-0 -122.5,54.89 -122.5,122.5l-0,245c-0,67.61 54.89,122.5 122.5,122.5l245,0c67.61,0 122.5,-54.89 122.5,-122.5l0,-245Z"/></clipPath><g clip-path="url(#_clip1)"><rect x="270" y="270" width="245" height="245" style="fill:#d9d9d9;"/></g></svg>